<?xml version="1.0" encoding="utf-8" ?>
<svg baseProfile="full" height="200mm" version="1.1" viewBox="0,0,200,200" width="200mm" xmlns="http://www.w3.org/2000/svg" xmlns:ev="http://www.w3.org/2001/xml-events" xmlns:xlink="http://www.w3.org/1999/xlink"><defs /><rect fill="#1a1a1a" height="200" width="200" x="0" y="0" /><text alignment-baseline="middle" fill="#e1ed5e" style="dominant-baseline: central; font-size:9.0px; font-family:Arial;" text-anchor="middle" x="100.0" y="100.0">2018</text><line stroke="#e1ed5e" stroke-width="0.3" x1="100.0" x2="100.0" y1="15.0" y2="10.0" /><path d="M 100.0 14.0 a86.0,86.0 0 0,1 42.46469731375804,11.215312516191453" fill="none" id="id13" stroke="none" /><text fill="#e1ed5e" style="font-size:6.75px; font-family:Arial;" text-anchor="middle"><textPath startOffset="22.20632615414155" xlink:href="#id13">January</textPath></text><line stroke="#e1ed5e" stroke-width="0.3" x1="143.23703022742887" x2="145.7803849466894" y1="26.81831364943548" y2="22.513508569990506" /><path d="M 143.74570117128098 25.957352633546492 a86.0,86.0 0 0,1 28.547481713284135,27.462654790039103" fill="none" id="id14" stroke="none" /><text fill="#e1ed5e" style="font-size:6.75px; font-family:Arial;" text-anchor="middle"><textPath startOffset="19.985693538727396" xlink:href="#id14">February</textPath></text><path d="M 117.04232023915458 87.72973835380427 l 21.272891715056115 -15.316221245228562 a47.21302262527719,47.21302262527719 0 0,0 0.4691791429909095,0.6636206246770142 l -21.533383477850908 14.947774120219755" fill="#c6ff1e" stroke="none" /><line stroke="#e1ed5e" stroke-width="0.3" x1="172.23445277983987" x2="176.4835382374775" y1="55.19839476539836" y2="52.563006222186495" /><path d="M 173.08426987136738 54.67131705675599 a86.0,86.0 0 0,1 12.851231095245387,41.99856678651699" fill="none" id="id15" stroke="none" /><text fill="#e1ed5e" style="font-size:6.75px; font-family:Arial;" text-anchor="middle"><textPath startOffset="22.20632615414155" xlink:href="#id15">March</textPath></text><path d="M 118.21658344932153 89.55222093294921 l 24.653876444063506 -14.139767478930674 a49.4208840129468,49.4208840129468 0 0,0 0.416882474450785,0.7415874050514025 l -24.893616559806723 13.713296563944477" fill="#acff20" stroke="none" /><path d="M 118.3937258080291 89.86733742301442 l 24.47044787256293 -13.480183079175902 a48.93775500880341,48.93775500880341 0 0,0 0.40010553225916906,0.7413347857770277 l -24.69886150404056 13.056967310066415" fill="#b2ff20" stroke="none" /><path d="M 119.34039704204932 91.81776055985345 l 26.195659019295125 -11.08245885140296 a49.4435132437647,49.4435132437647 0 0,0 0.32486345484736245,0.7866826238509845 l -26.382544161028687 10.629901657098673" fill="#acff20" stroke="none" /><path d="M 119.47837535516314 92.15188598940014 l 35.09336914900055 -14.139616732687056 a58.834816235516556,58.834816235516556 0 0,0 0.3703972475171496,0.9426205937720574 l -35.3315599463994 13.533447134019214" fill="#45ff2d" stroke="none" /><path d="M 120.18372546131832 94.20196356495316 l 31.34230413668308 -9.003482617273894 a53.609856298915126,53.609856298915126 0 0,0 0.24714968179862737,0.8891289035355449 l -31.492640589048072 8.462642410319397" fill="#7dff26" stroke="none" /><path d="M 120.78858239683441 97.02765380044208 l 29.232824533818835 -4.179701782776247 a50.53011915346742,50.53011915346742 0 0,0 0.11569953795157031,0.8620959459987793 l -29.30044007082824 3.675887494712804" fill="#a0ff22" stroke="none" /><path d="M 120.98425023603335 99.18683210126433 l 6.389351701895554 -0.24759596551092686 a27.394147240457706,27.394147240457706 0 0,0 0.014203611680054816,0.47134872303868813 l -6.392667008031253 0.13757709504723964" fill="#ff2f04" stroke="none" /><line stroke="#e1ed5e" stroke-width="0.3" x1="184.98032266829074" x2="189.97916517819016" y1="98.17113171792111" y2="98.06355123074" /><path d="M 185.9800911702706 98.14961562048488 a86.0,86.0 0 0,1 -9.607161424134198,41.387399972396054" fill="none" id="id16" stroke="none" /><text fill="#e1ed5e" style="font-size:6.75px; font-family:Arial;" text-anchor="middle"><textPath startOffset="21.466115282336823" xlink:href="#id16">April</textPath></text><path d="M 120.99513854157772 99.54816195383933 l 41.105860066320005 -0.8846424833700632 a62.11537819496818,62.11537819496818 0 0,0 0.013804382281729673,1.0691646206829877 l -41.114997455719454 0.17694160462661293" fill="#31ff3e" stroke="none" /><path d="M 120.49622156327973 104.57218783832717 l 61.488664689839204 13.716563514981502 a84.0,84.0 0 0,0 -0.3269577362777887,1.4085253706057403 l -61.24344638763086 -14.772957542935806" fill="#4dd2ff" stroke="none" /><path d="M 119.9155931802556 106.66101706037122 l 24.715914828826147 8.266544151981925 a47.06169983025771,47.06169983025771 0 0,0 -0.2635660672112241,0.7660463638571298 l -24.56995793067169 -8.690763218928355" fill="#c8ff1d" stroke="none" /><path d="M 118.81262510543309 109.33194174019688 l 29.56700147056563 14.666615297402 a54.00480541137027,54.00480541137027 0 0,0 -0.4202636732504679,0.8292200977481851 l -29.31015912752889 -15.17338960685288" fill="#79ff26" stroke="none" /><path d="M 118.64920377521936 109.65438752849418 l 30.857596257990643 15.974472479533489 a55.74730230997122,55.74730230997122 0 0,0 -0.44849366183325057,0.8483809889390885 l -30.5780500879325 -16.50326848355871" fill="#66ff29" stroke="none" /><line stroke="#e1ed5e" stroke-width="0.3" x1="174.80103733775053" x2="179.2010983576182" y1="140.37084112569926" y2="142.7455964860345" /><path d="M 175.68104954172406 140.8457921977663 a86.0,86.0 0 0,1 -30.038265399797805,32.042727171017184" fill="none" id="id17" stroke="none" /><text fill="#e1ed5e" style="font-size:6.75px; font-family:Arial;" text-anchor="middle"><textPath startOffset="22.206326154141568" xlink:href="#id17">May</textPath></text><path d="M 118.48025628344425 109.97397251340804 l 19.81880365862574 10.696399438835213 a43.52105546847819,43.52105546847819 0 0,0 -0.36148089329866573,0.65619282056022 l -19.631746355875563 -11.03596277779324" fill="#f4ff19" stroke="none" /><path d="M 117.75023020441432 111.22182372390056 l 26.723542175046436 16.894816355227537 a52.61617507002309,52.61617507002309 0 0,0 -0.49057100887677185,0.7613770999300643 l -26.428766302792614 -17.352315055079053" fill="#88ff25" stroke="none" /><path d="M 116.27256486870786 113.27417163493432 l 25.05666645848408 20.439709034979604 a53.336020773223595,53.336020773223595 0 0,0 -0.5864524069665902,0.7064197032580112 l -24.701118051623947 -20.867989995351383" fill="#80ff25" stroke="none" /><path d="M 116.0416608686014 113.55231037782055 l 24.112639873957193 20.370832065157003 a52.56564906220018,52.56564906220018 0 0,0 -0.5898804257514877,0.6861642002565438 l -23.758416938634927 -20.782873364575075" fill="#89ff25" stroke="none" /><path d="M 112.63410532772338 116.77436683061366 l 19.075155514798794 25.32618239726963 a52.70610466035727,52.70610466035727 0 0,0 -0.7293898173805702,0.539585149650348 l -18.636380726999658 -25.65077749565975" fill="#87ff25" stroke="none" /><path d="M 112.34349029814194 116.9893568818739 l 18.56875084361613 25.557692946887084 a52.59104583041936,52.59104583041936 0 0,0 -0.736957504178061,0.5257996117957234 l -18.126066011589185 -25.873536820527026" fill="#88ff25" stroke="none" /><line stroke="#e1ed5e" stroke-width="0.3" x1="143.8653032363475" x2="146.44561519142675" y1="172.8068346515853" y2="177.08958963109032" /><path d="M 144.38136562736335 173.6633856474863 a86.0,86.0 0 0,1 -40.68145358897372,12.25698825130547" fill="none" id="id18" stroke="none" /><text fill="#e1ed5e" style="font-size:6.75px; font-family:Arial;" text-anchor="middle"><textPath startOffset="21.466115282336833" xlink:href="#id18">June</textPath></text><path d="M 110.5260780823613 118.17145234162733 l 15.819248767598566 27.30919558182483 a52.5601139873976,52.5601139873976 0 0,0 -0.7867779353667032,0.4467530453439971 l -15.346822065310665 -27.577451792963455" fill="#89ff24" stroke="none" /><path d="M 110.21172684928248 118.3499491758327 l 13.85484931681484 24.896453318298082 a49.49193284812107,49.49193284812107 0 0,0 -0.7479814515486821,0.4078591258021446 l -13.42424505339751 -25.131253095859996" fill="#acff21" stroke="none" /><path d="M 108.2653958097858 119.30500536409082 l 9.300980611318433 21.7237606915597 a44.63112394526075,44.63112394526075 0 0,0 -0.7088454109738443,0.296297439276132 l -8.925663740847128 -21.880643173855805" fill="#e6ff1a" stroke="none" /><path d="M 107.93186726928326 119.44442032107085 l 16.239123218718696 39.809079853521034 a63.99385958130234,63.99385958130234 0 0,0 -1.023532795052178,0.4072848224607609 l -15.551469347624652 -40.08271152038786" fill="#33ff55" stroke="none" /><path d="M 105.88484417918355 120.15858648285463 l 10.649264963321887 36.47915258339794 a59.00178176693645,59.00178176693645 0 0,0 -0.9773752810957692,0.2762160171754709 l -10.019758514121511 -36.65705739391193" fill="#43ff2d" stroke="none" /><path d="M 105.53697534728816 120.25689768951611 l 6.9453342834654315 25.409346651426592 a47.341460961029554,47.341460961029554 0 0,0 -0.7879187170069629,0.2080964944433187 l -6.506925123646971 -25.525134495173496" fill="#c5ff1e" stroke="none" /><path d="M 105.18746579009965 120.34920634021253 l 5.452502075397739 21.388881255749762 a43.07292504981567,43.07292504981567 0 0,0 -0.72002899310665,0.1769656082872474 l -5.083519797547878 -21.47956812235104" fill="#f9ff18" stroke="none" /><path d="M 103.41894727170886 120.7198165907248 l 3.9429300898885287 23.89530513341512 a45.21842903891091,45.21842903891091 0 0,0 -0.7690667217458175,0.12011240528072553 l -3.531027504534194 -23.959635846042953" fill="#dfff1b" stroke="none" /><line stroke="#e1ed5e" stroke-width="0.3" x1="102.19456741930631" x2="102.32365962044197" y1="184.97166512339345" y2="189.96999836594603" /><path d="M 102.22038585953345 185.97133177190398 a86.0,86.0 0 0,1 -42.740103519485714,-10.115201625700543" fill="none" id="id19" stroke="none" /><text fill="#e1ed5e" style="font-size:6.75px; font-family:Arial;" text-anchor="middle"><textPath startOffset="22.20632615414155" xlink:href="#id19">July</textPath></text><path d="M 98.01472825383883 120.90594882070398 l -2.0883051742735947 21.99094465520624 a43.08987698764395,43.08987698764395 0 0,0 -0.7377959610015016,-0.07647556802347961 l 2.4665337318806895 -21.951739718726998" fill="#f9ff18" stroke="none" /><path d="M 96.93821686468263 120.77559828337769 l -0.48301203121253017 3.2774574432652206 a24.312857967784108,24.312857967784108 0 0,0 -0.41350861520344734,-0.06458154146059066 l 0.5393565100244946 -3.2686575944575242" fill="#ff0100" stroke="none" /><path d="M 95.86986931433489 120.58985236759428 l -3.4421583247682244 17.160118438588864 a38.50194614204857,38.50194614204857 0 0,0 -0.6486817760306031,-0.13593757318198676 l 3.737031562228214 -17.098324884680338" fill="#ffca12" stroke="none" /><path d="M 95.51606077576429 120.51570834832081 l -6.546062638203633 29.950698526275445 a51.65771156291878,51.65771156291878 0 0,0 -0.8670620216382954,-0.19734049321328787 l 7.060644809234791 -29.83358129948447" fill="#93ff23" stroke="none" /><path d="M 90.7491055286396 118.85261126421891 l -10.716848730878995 21.840113269715893 a45.32779057692176,45.32779057692176 0 0,0 -0.6974999237288789,-0.3497409416185535 l 11.091202562290635 -21.65240448718804" fill="#ddff1b" stroke="none" /><line stroke="#e1ed5e" stroke-width="0.3" x1="58.666819895761336" x2="56.23545636021788" y1="174.27360380694188" y2="178.64263932499728" /><path d="M 58.180547188652646 175.14741091055294 a86.0,86.0 0 0,1 -31.652253787137756,-30.449443065178592" fill="none" id="id20" stroke="none" /><text fill="#e1ed5e" style="font-size:6.75px; font-family:Arial;" text-anchor="middle"><textPath startOffset="22.20632615414155" xlink:href="#id20">August</textPath></text><path d="M 88.8546689885994 117.79835938074946 l -15.342354098347956 24.500728754470217 a49.90801858964426,49.90801858964426 0 0,0 -0.7241848327640497,-0.46220902388948387 l 15.761820733158928 -24.233005301756926" fill="#a7ff21" stroke="none" /><path d="M 88.54995079064634 117.60387380957326 l -12.594241855395518 19.363012358803942 a44.098510244589164,44.098510244589164 0 0,0 -0.6327617564080815,-0.4193599887032964 l 12.92567831054356 -19.14335434900933" fill="#ecff1a" stroke="none" /><path d="M 85.97065885151581 115.62618273729859 l -3.435433685249228 3.8264601294819696 a26.14237316112515,26.14237316112515 0 0,0 -0.3322576749861862,-0.30350950834644147 l 3.500790909702269 -3.766757854548952" fill="#ff1d02" stroke="none" /><path d="M 85.70375840098266 115.38237550388516 l -2.196960803933847 2.363871358731846 a24.227154253309624,24.227154253309624 0 0,0 -0.30302882176335916,-0.28653266508264824 l 2.237325460088023 -2.3257040569032674" fill="#ff0000" stroke="none" /><path d="M 84.9287848128048 114.62390073753433 l -20.319599135200804 19.716512377325156 a49.313017665739366,49.313017665739366 0 0,0 -0.5858702304445574,-0.6142825943428033 l 20.65597591702432 -19.36382266639985" fill="#aeff20" stroke="none" /><path d="M 84.67929136418377 114.36230785411682 l -13.878603465693283 13.010414876862521 a40.023315416247485,40.023315416247485 0 0,0 -0.4668502321490351,-0.5066737229571149 l 14.100500105838048 -12.769589899104062" fill="#ffde14" stroke="none" /><path d="M 83.28015986056508 112.70617746262583 l -15.104848797590158 11.478871075785147 a39.97158238978915,39.97158238978915 0 0,0 -0.4115906830552881,-0.5513929811406891 l 15.300200747340531 -11.21716521513515" fill="#ffdd14" stroke="none" /><line stroke="#e1ed5e" stroke-width="0.3" x1="26.63291911575756" x2="22.317208475507996" y1="142.92168965132927" y2="145.44649492493687" /><path d="M 25.769776987707644 143.4266507060508 a86.0,86.0 0 0,1 -11.730757126820373,-40.83630448921669" fill="none" id="id21" stroke="none" /><text fill="#e1ed5e" style="font-size:6.75px; font-family:Arial;" text-anchor="middle"><textPath startOffset="21.46611528233685" xlink:href="#id21">September</textPath></text><path d="M 81.69416730710424 110.29060199501025 l -13.76705987534469 7.73913627396083 a36.79323171102932,36.79323171102932 0 0,0 -0.3056003610914312,-0.5547534230062863 l 13.89823664588764 -7.501012332556722" fill="#ffb310" stroke="none" /><path d="M 80.73074385275274 108.34839909993369 l -17.729586266926805 7.681337613759064 a40.32203862776776,40.32203862776776 0 0,0 -0.2704437893831905,-0.6392492302979547 l 17.859181037502303 -7.375013857794951" fill="#ffe215" stroke="none" /><path d="M 79.86692584326677 105.97154293290107 l -18.177012610971186 5.39136797258542 a39.95971086475807,39.95971086475807 0 0,0 -0.18991777962881912,-0.6611287057599032 l 18.267123027486107 -5.077681791320921" fill="#ffdd14" stroke="none" /><path d="M 79.23777060512086 103.15116336523772 l -25.87639190947936 3.927359468911205 a47.1727302865218,47.1727302865218 0 0,0 -0.11493511958323376,-0.8038559586704344 l 25.940161080079193 -3.48135803826037" fill="#c7ff1e" stroke="none" /><path d="M 79.0095281055655 100.63252640178507 l -23.949588087433277 0.7216963417194769 a44.96045941060766,44.96045941060766 0 0,0 -0.016652363568998716,-0.7737699008451501 l 23.958462513687284 -0.30933662508419807" fill="#e2ff1b" stroke="none" /><line stroke="#e1ed5e" stroke-width="0.3" x1="15.007084014347285" x2="10.007500721073583" y1="101.09737516637583" y2="101.16192664675087" /><path d="M 14.007167355692545 101.11028546245083 a86.0,86.0 0 0,1 10.666146001902534,-42.60595125391555" fill="none" id="id22" stroke="none" /><text fill="#e1ed5e" style="font-size:6.75px; font-family:Arial;" text-anchor="middle"><textPath startOffset="22.20632615414155" xlink:href="#id22">October</textPath></text><path d="M 79.3925641242962 95.95851677861259 l -29.941262357085293 -5.872011936525603 a51.51163246564352,51.51163246564352 0 0,0 0.17813385801062176,-0.8686439546118089 l 29.835749203159676 6.386531547300815" fill="#94ff23" stroke="none" /><path d="M 80.02781315780177 93.51064311812611 l -27.292881052432584 -8.867994620877234 a49.69743341726122,49.69743341726122 0 0,0 0.2713543908676345,-0.8113150900554362 l 27.13618936779318 9.336482813854992" fill="#a9ff21" stroke="none" /><path d="M 80.95270993114464 91.15688171328213 l -28.63287269311251 -13.293433301976497 a52.568287372204495,52.568287372204495 0 0,0 0.3881086771824967,-0.817455854199115 l 28.39980582208826 13.784331571816145" fill="#89ff25" stroke="none" /><path d="M 81.10775173730289 90.83032412892265 l -7.986749626262481 -3.876505554973036 a29.877807438232747,29.877807438232747 0 0,0 0.2285509809456255,-0.4607448312164801 l 7.9188386323634425 4.013409974688478" fill="#ff5307" stroke="none" /><line stroke="#e1ed5e" stroke-width="0.3" x1="26.266209847984243" x2="21.928928074336255" y1="57.711370442889674" y2="55.22380399835377" /><path d="M 25.398753493254645 57.213857153982495 a86.0,86.0 0 0,1 29.58750427330803,-30.492523968695096" fill="none" id="id23" stroke="none" /><text fill="#e1ed5e" style="font-size:6.75px; font-family:Arial;" text-anchor="middle"><textPath startOffset="21.46611528233685" xlink:href="#id23">November</textPath></text><path d="M 82.15384107792192 88.93136811851018 l -26.82860665825173 -16.639769503907136 a52.56986006250815,52.56986006250815 0 0,0 0.48357363015657456,-0.7648973524492325 l 26.538205431849192 17.099114504070585" fill="#88ff25" stroke="none" /><path d="M 87.51073957382395 83.11751280151077 l -9.882307265614216 -13.358511249681062 a37.61655258168393,37.61655258168393 0 0,0 0.5238636659589386,-0.3806092321959643 l 9.650898283301496 13.526639716693692" fill="#ffbe11" stroke="none" /><line stroke="#e1ed5e" stroke-width="0.3" x1="56.762969772571076" x2="54.21961505331055" y1="26.818313649435495" y2="22.513508569990535" /><path d="M 56.25429882871897 25.957352633546506 a86.0,86.0 0 0,1 42.265352541879196,-11.944610805530505" fill="none" id="id24" stroke="none" /><text fill="#e1ed5e" style="font-size:6.75px; font-family:Arial;" text-anchor="middle"><textPath startOffset="22.20632615414155" xlink:href="#id24">December</textPath></text></svg>