<?xml version="1.0" encoding="utf-8" ?>
<svg baseProfile="full" height="200mm" version="1.1" viewBox="0,0,200,200" width="200mm" xmlns="http://www.w3.org/2000/svg" xmlns:ev="http://www.w3.org/2001/xml-events" xmlns:xlink="http://www.w3.org/1999/xlink"><defs /><rect fill="#1a1a1a" height="200" width="200" x="0" y="0" /><text alignment-baseline="middle" fill="#e1ed5e" style="dominant-baseline: central; font-size:9.0px; font-family:Arial;" text-anchor="middle" x="100.0" y="100.0">2019</text><line stroke="#e1ed5e" stroke-width="0.3" x1="100.0" x2="100.0" y1="15.0" y2="10.0" /><path d="M 100.0 14.0 a86.0,86.0 0 0,1 42.46469731375804,11.215312516191453" fill="none" id="id25" stroke="none" /><text fill="#e1ed5e" style="font-size:6.75px; font-family:Arial;" text-anchor="middle"><textPath startOffset="22.20632615414155" xlink:href="#id25">January</textPath></text><line stroke="#e1ed5e" stroke-width="0.3" x1="143.23703022742887" x2="145.7803849466894" y1="26.81831364943548" y2="22.513508569990506" /><path d="M 143.74570117128098 25.957352633546492 a86.0,86.0 0 0,1 28.547481713284135,27.462654790039103" fill="none" id="id26" stroke="none" /><text fill="#e1ed5e" style="font-size:6.75px; font-family:Arial;" text-anchor="middle"><textPath startOffset="19.985693538727396" xlink:href="#id26">February</textPath></text><line stroke="#e1ed5e" stroke-width="0.3" x1="172.23445277983987" x2="176.4835382374775" y1="55.19839476539836" y2="52.563006222186495" /><path d="M 173.08426987136738 54.67131705675599 a86.0,86.0 0 0,1 12.851231095245387,41.99856678651699" fill="none" id="id27" stroke="none" /><text fill="#e1ed5e" style="font-size:6.75px; font-family:Arial;" text-anchor="middle"><textPath startOffset="22.20632615414155" xlink:href="#id27">March</textPath></text><path d="M 120.67395015179393 96.31383870115 l 35.612712785742815 -6.349739776579389 a57.17436256784747,57.17436256784747 0 0,0 0.16441206305905476,0.9703693030078011 l -35.71673671032209 5.73578468525575" fill="#62ff29" stroke="none" /><path d="M 120.73433829027371 96.67025291283417 l 32.407876254353305 -5.204411640654247 a53.82310685847478,53.82310685847478 0 0,0 0.13902792113614548,0.9160202935730808 l -32.49266006892875 4.645792234689084" fill="#88ff25" stroke="none" /><path d="M 120.83666639777658 97.38593545837742 l 6.648053993396608 -0.8340317919945606 a27.700166485183352,27.700166485183352 0 0,0 0.05528115233980246,0.47361515361662565 l -6.661425498739999 0.7194729000530822" fill="#ff1101" stroke="none" /><path d="M 120.98425023603335 99.18683210126433 l 62.95275070810006 -2.4395036962070047 a84.0,84.0 0 0,0 0.04355322217741975,1.4453194103000038 l -62.98541562473312 1.355514138482002" fill="#4dd2ff" stroke="none" /><line stroke="#e1ed5e" stroke-width="0.3" x1="184.98032266829074" x2="189.97916517819016" y1="98.17113171792111" y2="98.06355123074" /><path d="M 185.9800911702706 98.14961562048488 a86.0,86.0 0 0,1 -9.607161424134198,41.387399972396054" fill="none" id="id28" stroke="none" /><text fill="#e1ed5e" style="font-size:6.75px; font-family:Arial;" text-anchor="middle"><textPath startOffset="21.466115282336823" xlink:href="#id28">April</textPath></text><path d="M 120.81339534386255 102.79330883721812 l 7.2468291021914055 0.9725771042411784 a28.31180130064148,28.31180130064148 0 0,0 -0.06898096099889246,0.4824526805631186 l -7.2290140901759115 -1.0971752567847062" fill="#ff1b02" stroke="none" /><path d="M 120.76222939487914 103.15116336523771 l 9.479947209049715 1.4388080288195257 a30.588512274079072,30.588512274079072 0 0,0 -0.08348951715468611,0.519889303019198 l -9.453775937533742 -1.6017765615319288" fill="#ff3e05" stroke="none" /><path d="M 120.5718875245553 104.21870165774334 l 44.72127782451036 9.171046102087836 a66.65195260734926,66.65195260734926 0 0,0 -0.2401563840441878,1.1219306740774477 l -44.55678740174173 -9.939490595581452" fill="#36ff6c" stroke="none" /><path d="M 120.41448212921028 104.9243191809786 l 11.628954453986942 2.8051009626424293 a32.962490255106594,32.962490255106594 0 0,0 -0.137796842717032,0.550429889361929 l -11.578946296974848 -3.0048586914017545" fill="#ff6109" stroke="none" /><path d="M 120.32669344350535 105.2749913415812 l 13.285521738388852 3.447733018317444 a34.725594734903076,34.725594734903076 0 0,0 -0.15512737344081476,0.5772866653726718 l -13.22420628860626 -3.675910616865664" fill="#ff7b0b" stroke="none" /><path d="M 120.23288151984713 105.62410040840565 l 7.818168485269392 2.1732032843594715 a29.114590006846328,29.114590006846328 0 0,0 -0.13837383127265016,0.4816974596013218 l -7.779602017110642 -2.307458219465375" fill="#ff2703" stroke="none" /><path d="M 120.13307415673323 105.97154293290107 l 12.7052835427421 3.7684332536366396 a34.25237031962915,34.25237031962915 0 0,0 -0.17252303609630107,0.5638152640787748 l -12.638533734139665 -3.9865754902674713" fill="#ff740a" stroke="none" /><path d="M 119.41010516605496 108.01547362559984 l 6.918250670479433 2.8569168126659314 a28.484929259123454,28.484929259123454 0 0,0 -0.19105115890257282,0.4515885040456883 l -6.868048530384551 -2.9755798423777833" fill="#ff1d03" stroke="none" /><path d="M 118.97047184881838 109.00673069616215 l 11.536589663931375 5.477299514910582 a33.770814815428494,33.770814815428494 0 0,0 -0.25383872095633075,0.5229829497156593 l -11.440597686360329 -5.675071420591516" fill="#ff6d0a" stroke="none" /><line stroke="#e1ed5e" stroke-width="0.3" x1="174.80103733775053" x2="179.2010983576182" y1="140.37084112569926" y2="142.7455964860345" /><path d="M 175.68104954172406 140.8457921977663 a86.0,86.0 0 0,1 -30.038265399797805,32.042727171017184" fill="none" id="id29" stroke="none" /><text fill="#e1ed5e" style="font-size:6.75px; font-family:Arial;" text-anchor="middle"><textPath startOffset="22.206326154141568" xlink:href="#id29">May</textPath></text><path d="M 117.35343817320211 111.8261652097733 l 11.759195983613928 8.01375456830639 a35.230212663979884,35.230212663979884 0 0,0 -0.3458249561446588,0.4981866421703974 l -11.619510120307133 -8.214982472663808" fill="#ff830c" stroke="none" /><path d="M 116.27256486870786 113.27417163493432 l 31.873431612731686 26.0004126722119 a62.13316304269343,62.13316304269343 0 0,0 -0.6831807564678367,0.8229352314399946 l -31.421154856370308 -26.545209160765666" fill="#30ff32" stroke="none" /><path d="M 115.32070863581623 114.36230785411682 l 9.92540559029266 9.304512869039403 a34.60469168566244,34.60469168566244 0 0,0 -0.41112589843445696,0.4310638608488466 l -9.76377314047924 -9.473983846470757" fill="#ff7a0b" stroke="none" /><path d="M 114.55890576462653 115.13401014063108 l 25.051665389755115 26.041253661344523 a57.134925363901665,57.134925363901665 0 0,0 -0.7146332141834625,0.6757303091666715 l -24.599696341180845 -26.468618607257117" fill="#63ff29" stroke="none" /><path d="M 114.29624159901734 115.38237550388516 l 9.27972623987991 9.9847384787412 a34.63115261362629,34.63115261362629 0 0,0 -0.4401462016694595,0.4020631194593358 l -9.106480488743587 -10.14299436478712" fill="#ff7a0b" stroke="none" /><path d="M 114.0293411484842 115.62618273729858 l 6.841387152927289 7.620084556843152 a31.24061847886533,31.24061847886533 0 0,0 -0.40323850183924825,0.3558110941364565 l -6.709206298181453 -7.736718792751898" fill="#ff4806" stroke="none" /><path d="M 112.92097659922987 116.55440617244103 l 29.221374906697882 37.43854076413118 a68.49245293712787,68.49245293712787 0 0,0 -0.9356436696511148,0.7174116679956396 l -28.572602508553274 -37.93599177395419" fill="#38ff83" stroke="none" /><line stroke="#e1ed5e" stroke-width="0.3" x1="143.8653032363475" x2="146.44561519142675" y1="172.8068346515853" y2="177.08958963109032" /><path d="M 144.38136562736335 173.6633856474863 a86.0,86.0 0 0,1 -40.68145358897372,12.25698825130547" fill="none" id="id30" stroke="none" /><text fill="#e1ed5e" style="font-size:6.75px; font-family:Arial;" text-anchor="middle"><textPath startOffset="21.466115282336833" xlink:href="#id30">June</textPath></text><path d="M 110.5260780823613 118.17145234162733 l 16.243108503720254 28.040916070140092 a53.405733256883266,53.405733256883266 0 0,0 -0.7994361001323229,0.4539406816557233 l -15.758023636666733 -28.316359917590443" fill="#8dff24" stroke="none" /><path d="M 108.92500713936063 119.00905698771935 l 18.20503410100441 38.77425813624146 a63.83534009010108,63.83534009010108 0 0,0 -0.9986643914604432,0.45843784072423127 l -17.53490171377655 -39.08188304729976" fill="#32ff49" stroke="none" /><path d="M 108.59647513512805 119.15986991738527 l 7.742365482711728 17.2562257401796 a39.91352822886103,39.91352822886103 0 0,0 -0.6292639999066671,0.27585084519476877 l -7.444180808147307 -17.386941138668828" fill="#ffc512" stroke="none" /><path d="M 108.2653958097858 119.30500536409082 l 17.737659167302162 41.42882122665786 a66.0663042745437,66.0663042745437 0 0,0 -1.0492856210040573,0.43860147467927957 l -17.021902086800644 -41.728007744357114" fill="#35ff65" stroke="none" /><path d="M 107.93186726928326 119.44442032107085 l 4.6898287226106214 11.496788564455123 a33.41654705396028,33.41654705396028 0 0,0 -0.5344720888990725,0.21267747441975585 l -4.491235557669683 -11.575812883280948" fill="#ff6809" stroke="none" /><path d="M 105.88484417918355 120.15858648285463 l 9.927438592797218 34.00652988128837 a56.42595251479794,56.42595251479794 0 0,0 -0.9347061995194164,0.2641573085120577 l -9.340601225173195 -34.17237598313895" fill="#6bff28" stroke="none" /><path d="M 104.83641907484287 120.43548508189849 l 3.133722305640862 13.24102283874501 a34.60679614402443,34.60679614402443 0 0,0 -0.5808665873732098,0.13220334414689694 l -2.90533556887479 -13.293002916469591" fill="#ff7a0b" stroke="none" /><path d="M 103.7750983002368 120.6578951692458 l 6.887075734544549 37.687095071922535 a59.31121176801225,59.31121176801225 0 0,0 -1.005892813067458,0.17488735915794976 l -6.237333950005041 -37.80006100960149" fill="#4bff2c" stroke="none" /><path d="M 103.41894727170886 120.7198165907248 l 6.894494822456045 41.78264736314295 a63.3476525858238,63.3476525858238 0 0,0 -1.077405220392545,0.16826853746784495 l -6.174253738454983 -41.895134207957895" fill="#31ff42" stroke="none" /><path d="M 100.90346689309514 120.98055641714683 l 1.8147611388321914 42.14288176789323 a63.181937386678236,63.181937386678236 0 0,0 -1.0869689580749167,0.037437408701540886 l -1.0890718290826222 -42.16787597502086" fill="#31ff40" stroke="none" /><line stroke="#e1ed5e" stroke-width="0.3" x1="102.19456741930631" x2="102.32365962044197" y1="184.97166512339345" y2="189.96999836594603" /><path d="M 102.22038585953345 185.97133177190398 a86.0,86.0 0 0,1 -42.740103519485714,-10.115201625700543" fill="none" id="id31" stroke="none" /><text fill="#e1ed5e" style="font-size:6.75px; font-family:Arial;" text-anchor="middle"><textPath startOffset="22.20632615414155" xlink:href="#id31">July</textPath></text><path d="M 95.86986931433489 120.58985236759428 l -8.322912241943998 41.49203678344953 a63.31855366888417,63.31855366888417 0 0,0 -1.0667926160948975,-0.22355676493301355 l 9.035896319468282 -41.342624037789975" fill="#31ff42" stroke="none" /><path d="M 94.81253420990036 120.34920634021253 l -3.512628707021096 13.779214986274303 a35.21989191489707,35.21989191489707 0 0,0 -0.5861756584477563,-0.1548143190637068 l 3.7492948082803417 -13.716709317907014" fill="#ff820c" stroke="none" /><path d="M 94.46302465271185 120.25689768951611 l -1.7100140486882007 6.256047292837878 a27.485543599185434,27.485543599185434 0 0,0 -0.4553030450408735,-0.1286731884277429 l 1.817448261833688 -6.225685311071613" fill="#ff0e01" stroke="none" /><path d="M 93.76903079525671 120.05430185196036 l -10.373199743283351 33.38602262134796 a55.96040302094945,55.96040302094945 0 0,0 -0.9174272514391121,-0.2937312345130864 l 10.946348339813403 -33.20251854017517" fill="#70ff27" stroke="none" /><path d="M 93.42475214034765 119.94407469862007 l -9.036219569998359 27.408706400720895 a49.85984148740495,49.85984148740495 0 0,0 -0.8127872786709964,-0.27574157448001224 l 9.50667658160658 -27.24910183934276" fill="#b8ff1f" stroke="none" /><path d="M 91.07499286063937 119.00905698771935 l -10.083557871093307 21.476613207987878 a44.72599954111959,44.72599954111959 0 0,0 -0.6940779362608506,-0.33319958845193787 l 10.4517484753544 -21.299859343036378" fill="#f9ff18" stroke="none" /><line stroke="#e1ed5e" stroke-width="0.3" x1="58.666819895761336" x2="56.23545636021788" y1="174.27360380694188" y2="178.64263932499728" /><path d="M 58.180547188652646 175.14741091055294 a86.0,86.0 0 0,1 -31.652253787137756,-30.449443065178592" fill="none" id="id32" stroke="none" /><text fill="#e1ed5e" style="font-size:6.75px; font-family:Arial;" text-anchor="middle"><textPath startOffset="22.20632615414155" xlink:href="#id32">August</textPath></text><path d="M 88.8546689885994 117.79835938074946 l -12.66702576285548 20.22840565093114 a44.86717278722948,44.86717278722948 0 0,0 -0.6510401923320895,-0.41552465364692354 l 13.013347757234493 -20.007366568460412" fill="#f7ff19" stroke="none" /><path d="M 86.79598089348748 116.32954008644616 l -23.122341803504053 28.59562715920334 a57.77434680733621,57.77434680733621 0 0,0 -0.767930761797444,-0.6319547364991993 l 23.611142693846187 -28.193377303846958" fill="#5cff2a" stroke="none" /><path d="M 84.9287848128048 114.62390073753433 l -24.30315882843159 23.581839811926745 a54.86364862142509,54.86364862142509 0 0,0 -0.6518152808805929,-0.6834257160801491 l 24.70548066069114 -23.160006979264097" fill="#7cff26" stroke="none" /><path d="M 83.50135304334701 112.99209946851258 l -5.45411922689229 4.294925498744459 a27.9421755654061,27.9421755654061 0 0,0 -0.29431517843636634,-0.3804420422143129 l 5.527241222546725 -4.200405462416893" fill="#ff1502" stroke="none" /><path d="M 83.28015986056508 112.70617746262583 l -30.276482649175676 23.008495193515632 a59.02704633120837,59.02704633120837 0 0,0 -0.6078063680662392,-0.8142559563218295 l 30.668050283937 -22.483926357684496" fill="#4eff2b" stroke="none" /><path d="M 82.85270091963577 112.12312394758628 l -17.225119886845636 12.178143182875388 a42.095305792967764,42.095305792967764 0 0,0 -0.4132137213759498,-0.5952651845776878 l 17.43219451538372 -11.879836736110688" fill="#ffe215" stroke="none" /><path d="M 82.6465618267979 111.8261652097733 l -6.218651562436165 4.23793832814945 a28.525406867949926,28.525406867949926 0 0,0 -0.27302467606444564,-0.4081348462418431 l 6.290679343911341 -4.130266567701785" fill="#ff1e03" stroke="none" /><path d="M 82.05923443525364 110.91462005526583 l -28.575241684487146 17.384314222712536 a54.44785222283872,54.44785222283872 0 0,0 -0.4802277861345841,-0.8048893922122144 l 28.87025034631996 -16.88986273661421" fill="#81ff25" stroke="none" /><line stroke="#e1ed5e" stroke-width="0.3" x1="26.63291911575756" x2="22.317208475507996" y1="142.92168965132927" y2="145.44649492493687" /><path d="M 25.769776987707644 143.4266507060508 a86.0,86.0 0 0,1 -11.730757126820373,-40.83630448921669" fill="none" id="id33" stroke="none" /><text fill="#e1ed5e" style="font-size:6.75px; font-family:Arial;" text-anchor="middle"><textPath startOffset="21.46611528233685" xlink:href="#id33">September</textPath></text><path d="M 80.73074385275274 108.34839909993369 l -43.2330142647365 18.730689686052422 a68.11615708576093,68.11615708576093 0 0,0 -0.4568616138323876,-1.079885900360733 l 43.54902685976119 -17.98372926002553" fill="#38ff7e" stroke="none" /><path d="M 80.32549172779594 107.34259656027581 l -6.734659313875366 2.513398842224332 a28.18838019403974,28.18838019403974 0 0,0 -0.16574195597736918,-0.45605067951210176 l 6.77692553085796 -2.397100365706113" fill="#ff1902" stroke="none" /><path d="M 79.67330655649465 105.27499134158121 l -27.33957085360672 7.094906996858382 a49.24517374266712,49.24517374266712 0 0,0 -0.20586519429429714,-0.8223291178853288 l 27.457647362196074 -6.6232500395756615" fill="#bfff1e" stroke="none" /><path d="M 79.58551787078972 104.9243191809786 l -23.082556857122608 5.567904037835864 a44.74459910036063,44.74459910036063 0 0,0 -0.1741618194346509,-0.7502845598861794 l 23.174979242487815 -5.16975082060111" fill="#f8ff18" stroke="none" /><path d="M 79.50377843672027 104.57218783832718 l -27.51622955979129 6.138173797617991 a49.192553391931284,49.192553391931284 0 0,0 -0.1772477066666549,-0.8280422767466774 l 27.61781130518239 -5.66361770145515" fill="#c0ff1e" stroke="none" /><path d="M 79.4281124754447 104.21870165774334 l -24.931252026509366 5.11268176672212 a46.45008531335603,46.45008531335603 0 0,0 -0.15388264516839,-0.7846442924493069 l 25.015564604653424 -4.682773747204858" fill="#e2ff1b" stroke="none" /><path d="M 79.35854240842038 103.8639653848113 l -17.476944842015953 3.271586301606624 a38.78051961950854,38.78051961950854 0 0,0 -0.11717913989489089,-0.6572028461621817 l 17.530670424250033 -2.9702647047112287" fill="#ffb510" stroke="none" /><path d="M 79.29508885075956 103.50808413554451 l -46.302034512198986 7.845067846216691 a67.96193660274892,67.96193660274892 0 0,0 -0.18549804648946416,-1.1550965125616248 l 46.43021431304974 -7.046892103961852" fill="#37ff7c" stroke="none" /><path d="M 79.18660465613746 102.79330883721812 l -20.399889208586576 2.7378133102833084 a41.58278653255121,41.58278653255121 0 0,0 -0.08910298263215685,-0.7102384407848937 l 20.44399370046558 -2.386257115211006" fill="#ffdc14" stroke="none" /><path d="M 79.10278846688536 102.07522291339032 l -38.8244768420984 3.855511718175429 a60.015445309154465,60.015445309154465 0 0,0 -0.09323943489629855,-1.0288893945638695 l 38.88509087327177 -3.186640935062993" fill="#43ff2d" stroke="none" /><path d="M 79.07016306316243 101.71520430193888 l -29.43973683093641 2.412592291700878 a50.53842761964097,50.53842761964097 0 0,0 -0.06359043701925321,-0.867640990290221 l 29.476903826620003 -1.9054781649138963" fill="#b0ff20" stroke="none" /><line stroke="#e1ed5e" stroke-width="0.3" x1="15.007084014347285" x2="10.007500721073583" y1="101.09737516637583" y2="101.16192664675087" /><path d="M 14.007167355692545 101.11028546245083 a86.0,86.0 0 0,1 10.666146001902534,-42.60595125391555" fill="none" id="id34" stroke="none" /><text fill="#e1ed5e" style="font-size:6.75px; font-family:Arial;" text-anchor="middle"><textPath startOffset="22.20632615414155" xlink:href="#id34">October</textPath></text><path d="M 79.08570108090925 98.10471618934814 l -5.577415398236863 -0.505433395135688 a26.600270122182327,26.600270122182327 0 0,0 0.045249433637785094,-0.45565562156289696 l 5.56788883891685 0.6013645474030153" fill="#ff0000" stroke="none" /><path d="M 79.16333360222342 97.38593545837743 l -28.11024807127068 -3.526571925495902 a49.33059752589191,49.33059752589191 0 0,0 0.11295297609107643,-0.8416308699294078 l 28.04537909612177 4.009921137489969" fill="#beff1e" stroke="none" /><path d="M 79.32604984820605 96.31383870115002 l -7.28443386820929 -1.2988131446517572 a28.39931702017387,28.39931702017387 0 0,0 0.08995047681196243,-0.48051904392181244 l 7.260997667487466 1.4240102660361424" fill="#ff1c02" stroke="none" /><path d="M 79.62865764111835 94.90015583598534 l -23.786261870707477 -5.95474891384189 a45.52030359536304,45.52030359536304 0 0,0 0.19682907337315242,-0.758462711338973 l 23.680236465464017 6.363308050729726" fill="#eeff19" stroke="none" /><path d="M 79.71946130924805 94.55025226153421 l -30.21011245901522 -8.118003893426707 a52.28182990171831,52.28182990171831 0 0,0 0.24102727588026454,-0.8671033519686678 l 30.065898412568593 8.636818548814317" fill="#9bff22" stroke="none" /><path d="M 79.81627453868168 94.20196356495316 l -23.475854687375556 -6.743743174773561 a45.4252702197965,45.4252702197965 0 0,0 0.22235475717629885,-0.7496697027275735 l 23.35629403308755 7.146842264247674" fill="#f0ff19" stroke="none" /><path d="M 79.91906864156998 93.8553929516997 l -22.68936572381471 -6.942767447361826 a44.72781778371464,44.72781778371464 0 0,0 0.2316145193806656,-0.7342813208116801 l 22.56649572066584 7.33229893459992" fill="#f9ff18" stroke="none" /><path d="M 80.02781315780177 93.51064311812611 l -8.63043509281462 -2.8041983487151394 a30.074576478834857,30.074576478834857 0 0,0 0.16421106322528595,-0.49097017786496516 l 8.580886735817563 2.9523416295024267" fill="#ff3605" stroke="none" /><path d="M 80.2630227832202 92.82701384747504 l -6.271076995301966 -2.2790900528818634 a27.67238024622028,27.67238024622028 0 0,0 0.166555328017164,-0.4462854729867193 l 6.2309170787831745 2.386698662897924" fill="#ff1101" stroke="none" /><path d="M 80.38941819471856 92.48833698450439 l -27.539421221793116 -10.54873608105732 a50.49060111525619,50.49060111525619 0 0,0 0.31786586370416897,-0.8089339518399535 l 27.353761808207256 11.021219037793037" fill="#b0ff20" stroke="none" /><path d="M 80.52162464483688 92.15188598940014 l -35.763711341903175 -14.409707120621848 a59.55752466444227,59.55752466444227 0 0,0 0.39131651363968084,-0.9476039767259181 l 35.51037314137729 15.023185667801076" fill="#48ff2c" stroke="none" /><path d="M 80.803312248108 91.48605970444005 l -44.960999790123616 -19.940693560745533 a70.18457849581569,70.18457849581569 0 0,0 0.49930540057993517,-1.1001532647389807 l 44.611092072580334 20.711668834326588" fill="#3aff97" stroke="none" /><path d="M 81.10775173730289 90.83032412892265 l -6.511895052432844 -3.160659658235759 a28.238407742666777,28.238407742666777 0 0,0 0.21601035495229712,-0.43546369445330096 l 6.4565246845271345 3.2722829411880214" fill="#ff1a02" stroke="none" /><path d="M 81.26839172434947 90.50648371742162 l -26.431069243804032 -13.395741707784348 a50.63186320959984,50.63186320959984 0 0,0 0.40069228795061745,-0.7740099625269005 l 26.1965675226933 13.848724392571585" fill="#aeff20" stroke="none" /><path d="M 81.43458229118936 90.18545643968196 l -22.65366583509939 -11.975781726363058 a46.62436191841351,46.62436191841351 0 0,0 0.3811916819284911,-0.7062902936303149 l 22.444166053952426 12.363953003325847" fill="#e0ff1b" stroke="none" /><line stroke="#e1ed5e" stroke-width="0.3" x1="26.266209847984243" x2="21.928928074336255" y1="57.711370442889674" y2="55.22380399835377" /><path d="M 25.398753493254645 57.213857153982495 a86.0,86.0 0 0,1 29.58750427330803,-30.492523968695096" fill="none" id="id35" stroke="none" /><text fill="#e1ed5e" style="font-size:6.75px; font-family:Arial;" text-anchor="middle"><textPath startOffset="21.46611528233685" xlink:href="#id35">November</textPath></text><path d="M 82.15384107792192 88.93136811851018 l -21.01270477860107 -13.032602424100483 a45.726149883419254,45.726149883419254 0 0,0 0.420620489876071,-0.6653206027548144 l 20.785256692479035 13.392370674569513" fill="#ecff1a" stroke="none" /><path d="M 82.7489923806493 88.02491185347247 l -30.817316404251198 -21.392378261219886 a58.5145416876022,58.5145416876022 0 0,0 0.5814879241982122,-0.8224734310195777 l 30.44451586024911 21.91967819257125" fill="#53ff2b" stroke="none" /><path d="M 84.31358615837235 86.03803664274999 l -4.994258736315837 -4.445226179614307 a27.686004495451336,27.686004495451336 0 0,0 0.31991357413114446,-0.35325655886660606 l 4.917001521568647 4.530535525750469" fill="#ff1101" stroke="none" /><path d="M 85.31137513191541 84.99185889309783 l -17.201461169945826 -17.575638209971537 a45.59254612416058,45.59254612416058 0 0,0 0.5656010586531953,-0.5441077702992365 l 16.896376867680203 17.869129067033086" fill="#edff19" stroke="none" /><path d="M 86.93701828274178 83.55741782278169 l -21.93167630579964 -27.605748652762486 a56.25727987610319,56.25727987610319 0 0,0 0.7634044428559138,-0.595849276569662 l 21.4532393077843 27.979176318555368" fill="#6dff28" stroke="none" /><line stroke="#e1ed5e" stroke-width="0.3" x1="56.762969772571076" x2="54.21961505331055" y1="26.818313649435495" y2="22.513508569990535" /><path d="M 56.25429882871897 25.957352633546506 a86.0,86.0 0 0,1 42.265352541879196,-11.944610805530505" fill="none" id="id36" stroke="none" /><text fill="#e1ed5e" style="font-size:6.75px; font-family:Arial;" text-anchor="middle"><textPath startOffset="22.20632615414155" xlink:href="#id36">December</textPath></text><path d="M 89.3179101791058 81.91981866633112 l -13.610164014597384 -23.03615093027709 a47.75632288239076,47.75632288239076 0 0,0 0.7113492306215728,-0.4120593887917983 l 13.21161805151049 23.267014476458936" fill="#d2ff1c" stroke="none" /><path d="M 91.23893434514133 80.91482961587045 l -9.893696556681652 -21.55250193889697 a44.71488080049849,44.71488080049849 0 0,0 0.7022746313633864,-0.3150901562785987 l 9.521239806851492 21.719612425692095" fill="#f9ff18" stroke="none" /><path d="M 92.23578459929587 80.48803036053334 l -2.6060259940357713 -6.549109916589308 a28.048561000740403,28.048561000740403 0 0,0 0.450135107370621,-0.17464542839132108 l 2.492907721665474 6.5929980488711815" fill="#ff1702" stroke="none" /><path d="M 92.91201910852362 80.23233633223022 l -2.506471868001216 -6.990297185896385 a28.426079448284433,28.426079448284433 0 0,0 0.4620158318869655,-0.16118825182669957 l 2.3857740320509655 7.0324062908952945" fill="#ff1d02" stroke="none" /><path d="M 93.94186890950719 79.89281104454417 l -8.059397547799362 -26.749475529681337 a48.93722122807662,48.93722122807662 0 0,0 0.8086521182655064,-0.23606772802283274 l 7.597755211810434 26.88424158662287" fill="#c3ff1e" stroke="none" /></svg>