<?xml version="1.0" encoding="utf-8" ?>
<svg baseProfile="full" height="200mm" version="1.1" viewBox="0,0,200,200" width="200mm" xmlns="http://www.w3.org/2000/svg" xmlns:ev="http://www.w3.org/2001/xml-events" xmlns:xlink="http://www.w3.org/1999/xlink"><defs /><rect fill="#1a1a1a" height="200" width="200" x="0" y="0" /><text alignment-baseline="middle" fill="#e1ed5e" style="dominant-baseline: central; font-size:9.0px; font-family:Arial;" text-anchor="middle" x="100.0" y="100.0">2020</text><line stroke="#e1ed5e" stroke-width="0.3" x1="100.0" x2="100.0" y1="15.0" y2="10.0" /><path d="M 100.0 14.0 a86.0,86.0 0 0,1 42.35913384403234,11.155469271406648" fill="none" id="id37" stroke="none" /><text fill="#e1ed5e" style="font-size:6.75px; font-family:Arial;" text-anchor="middle"><textPath startOffset="22.145653131862478" xlink:href="#id37">January</textPath></text><line stroke="#e1ed5e" stroke-width="0.3" x1="143.13028292997686" x2="145.6673583964461" y1="26.7553504044142" y2="22.446841604673864" /><path d="M 143.63769802327073 25.89364864446614 a86.0,86.0 0 0,1 29.32050498858742,28.57503671076993" fill="none" id="id38" stroke="none" /><text fill="#e1ed5e" style="font-size:6.75px; font-family:Arial;" text-anchor="middle"><textPath startOffset="20.669276256404974" xlink:href="#id38">February</textPath></text><line stroke="#e1ed5e" stroke-width="0.3" x1="172.87174338648825" x2="177.1583165268699" y1="56.24261187166439" y2="53.66864786411523" /><path d="M 173.72905801456457 55.72781907015455 a86.0,86.0 0 0,1 12.242430191666344,42.057860355516425" fill="none" id="id39" stroke="none" /><text fill="#e1ed5e" style="font-size:6.75px; font-family:Arial;" text-anchor="middle"><textPath startOffset="22.145653131862474" xlink:href="#id39">March</textPath></text><line stroke="#e1ed5e" stroke-width="0.3" x1="184.99686870605535" x2="189.99668451229388" y1="99.2704041080226" y2="99.22748670261217" /><path d="M 185.99683186730306 99.26182062694052 a86.0,86.0 0 0,1 -10.086455211305974,41.156179273409016" fill="none" id="id40" stroke="none" /><text fill="#e1ed5e" style="font-size:6.75px; font-family:Arial;" text-anchor="middle"><textPath startOffset="21.40746469413373" xlink:href="#id40">April</textPath></text><path d="M 120.99922638620191 99.81974689727618 l 31.94518635552281 -0.27421100433763956 a52.94636321968403,52.94636321968403 0 0,0 0.0,0.908928214122929 l -31.94518635552281 -0.2742110043376357" fill="#c7ff1e" stroke="none" /><path d="M 120.99922638620191 100.18025310272382 l 12.602454001517687 0.1081769106123114 a33.60291827730224,33.60291827730224 0 0,0 -0.009902569440163907,0.5767750250234697 l -12.598740000478855 -0.3244988516048521" fill="#ff0000" stroke="none" /><line stroke="#e1ed5e" stroke-width="0.3" x1="174.33088141563837" x2="178.70328620479359" y1="141.23008692659167" y2="143.65538615756765" /><path d="M 175.20536237346943 141.71514677278685 a86.0,86.0 0 0,1 -30.301960400862466,31.631185727798858" fill="none" id="id41" stroke="none" /><text fill="#e1ed5e" style="font-size:6.75px; font-family:Arial;" text-anchor="middle"><textPath startOffset="22.145653131862474" xlink:href="#id41">May</textPath></text><path d="M 113.31354834802062 116.24036423190432 l 16.50253496704845 20.130409385147107 a47.03011798575403,47.03011798575403 0 0,0 -0.6287461616477156,0.5064734012178957 l -16.154538035045483 -20.410731080158406" fill="#ffe015" stroke="none" /><path d="M 113.03279911837588 116.46651593811092 l 10.187510617430322 12.871586865408212 a37.415331888634014,37.415331888634014 0 0,0 -0.5070491130322654,0.3942844571530338 l -9.965051559762825 -13.044572374182039" fill="#ff4306" stroke="none" /><line stroke="#e1ed5e" stroke-width="0.3" x1="143.1302829299769" x2="145.66735839644613" y1="173.24464959558577" y2="177.55315839532614" /><path d="M 143.63769802327073 174.10635135553383 a86.0,86.0 0 0,1 -40.68552437913181,11.842963189579606" fill="none" id="id42" stroke="none" /><text fill="#e1ed5e" style="font-size:6.75px; font-family:Arial;" text-anchor="middle"><textPath startOffset="21.407464694133747" xlink:href="#id42">June</textPath></text><path d="M 108.73861861582097 119.09545874513695 l 11.09657415272872 24.24801713650224 a47.66646382592025,47.66646382592025 0 0,0 -0.7469711608751166,0.33411069916984615 l -10.678689588997976 -24.434931586581936" fill="#ffe915" stroke="none" /><path d="M 107.407793817531 119.65005319985036 l 9.29795880265535 24.66394038800205 a47.358338213149835,47.358338213149835 0 0,0 -0.7631702576648958,0.28024668962409205 l -8.873199393336327 -24.819917926634865" fill="#ffe515" stroke="none" /><path d="M 106.72888874123015 119.89276391827305 l 10.12676641865939 29.937985508296382 a52.60434106880021,52.60434106880021 0 0,0 -0.8578947960517885,0.2820070594180689 l -9.611348884959867 -30.107413489116468" fill="#ccff1d" stroke="none" /><path d="M 106.38641147887787 120.00534299687104 l 8.844316236301388 27.704694641926327 a50.08216007950726,50.08216007950726 0 0,0 -0.8212505214000534,0.2544255108236045 l -8.367425082029712 -27.852436740556577" fill="#f0ff19" stroke="none" /><path d="M 105.3480935250658 120.30758222061773 l 6.065684590817604 23.03239237964651 a44.81771668916399,44.81771668916399 0 0,0 -0.7456701419484604,0.18954643416288808 l -5.669409155643746 -23.133124045644667" fill="#ffbd11" stroke="none" /><path d="M 104.64783097203109 120.47920084513623 l 5.749877691807147 25.335022033735754 a46.979307822199914,46.979307822199914 0 0,0 -0.7879941836284489,0.17173966473321275 l -5.314121091559563 -25.429993156602684" fill="#ffdf14" stroke="none" /><path d="M 104.29559338865022 120.5559693870025 l 4.600131403102577 22.01329403015928 a43.488804392053765,43.488804392053765 0 0,0 -0.7320688186975088,0.14643426652252006 l -4.221566098874109 -22.089017693344662" fill="#ffa80f" stroke="none" /><path d="M 103.58742460773223 120.69131181640829 l 3.843494409411633 22.168254384593343 a43.49897668195646,43.49897668195646 0 0,0 -0.736836409521035,0.12124615078754403 l -3.462380496837526 -22.230966533876558" fill="#ffa80f" stroke="none" /><path d="M 102.875027216393 120.80226474461374 l 3.783639588125225 27.376531241721462 a48.63675797487433,48.63675797487433 0 0,0 -0.8280342689213462,0.10720561393545983 l -3.3131274973131033 -27.437448451857318" fill="#fff817" stroke="none" /><path d="M 101.80034050326958 120.92268563240118 l 1.932664588587327 22.460492082720037 a43.54348901589789,43.54348901589789 0 0,0 -0.7452800013322693,0.05768938558326825 l -1.5468155924798217 -22.490359235298357" fill="#ffa90f" stroke="none" /><path d="M 101.08105385017728 120.97215588758144 l 1.180730201136401 22.90585046743713 a43.936261889080036,43.936261889080036 0 0,0 -0.753557605140103,0.03236100592352943 l -0.7873468353954683 -22.92274404178649" fill="#ffaf10" stroke="none" /><path d="M 100.72087961077811 120.9876233191556 l 0.7757305582733814 22.584548807847035 a43.5978672169093,43.5978672169093 0 0,0 -0.7481948038040812,0.019270844116312125 l -0.38792244039855633 -22.594537369313393" fill="#ffaa0f" stroke="none" /><line stroke="#e1ed5e" stroke-width="0.3" x1="101.45913802915013" x2="101.54496967792366" y1="184.9874750549273" y2="189.98673829345242" /><path d="M 101.47630435890484 185.9873277026323 a86.0,86.0 0 0,1 -42.54439059252881,-10.42667462771756" fill="none" id="id43" stroke="none" /><text fill="#e1ed5e" style="font-size:6.75px; font-family:Arial;" text-anchor="middle"><textPath startOffset="22.145653131862474" xlink:href="#id43">July</textPath></text><path d="M 100.36049292484886 120.99690560180557 l 0.31593595617121667 18.401685555200686 a39.404397485407756,39.404397485407756 0 0,0 -0.6764288810200667,0.005806328401506728 l -2.2538886470740205e-15 -18.404397485407756" fill="#ff6509" stroke="none" /><path d="M 99.63950707515114 120.99690560180557 l -0.446390436244933 26.000005007902928 a47.00383673292363,47.00383673292363 0 0,0 -0.8066455688637229,-0.020776328485105723 l 0.8926493191793997 -25.988510962067775" fill="#ffdf14" stroke="none" /><path d="M 99.27912038922189 120.98762331915562 l -0.9890574585657761 28.795328749795072 a49.812309738462815,49.812309738462815 0 0,0 -0.8543386082269656,-0.03668897583005265 l 1.4832218273935804 -28.77410720553919" fill="#f4ff19" stroke="none" /><path d="M 98.91894614982273 120.97215588758144 l -1.2722493412511569 24.68129733612889 a45.714065966180414,45.714065966180414 0 0,0 -0.7833554678533304,-0.04712471970282753 l 1.6957491612369335 -24.65582063860137" fill="#ffcb13" stroke="none" /><path d="M 98.55909050195518 120.95050786540614 l -1.6524461030556448 24.02620367636034 a45.082961637254144,45.082961637254144 0 0,0 -0.7716292485613202,-0.059728983963082974 l 2.064644346392201 -23.9942969254022" fill="#ffc112" stroke="none" /><path d="M 98.19965949673042 120.92268563240118 l -2.0818560419998002 24.19432291812101 a45.28372677423971,45.28372677423971 0 0,0 -0.7739213957537289,-0.07329116082091992 l 2.4968770011385444 -24.155020001794906" fill="#ffc512" stroke="none" /><path d="M 97.84075906011543 120.88869738790638 l -2.3175819805418256 22.420503320852617 a43.53996795465547,43.53996795465547 0 0,0 -0.7428003506478443,-0.0832323286233573 l 2.7021182327904696 -22.37741523172229" fill="#ffa90f" stroke="none" /><path d="M 97.48249496171623 120.84855314841334 l -2.706392022034801 22.412808337535612 a43.575618161016976,43.575618161016976 0 0,0 -0.7418690436848505,-0.09604980044068888 l 3.090738887610445 -22.363046940894527" fill="#ffaa0f" stroke="none" /><path d="M 96.76829788921471 120.74984581791261 l -6.6454796121779935 42.6687462555971 a64.18314840653012,64.18314840653012 0 0,0 -1.0872090387184135,-0.17889983358955117 l 7.376966153949471 -42.54838042351188" fill="#34ff2f" stroke="none" /><path d="M 96.41257539226777 120.69131181640829 l -4.9191627703611225 28.37242364280682 a49.79570429297068,49.79570429297068 0 0,0 -0.8409907967180578,-0.15325653803944833 l 5.405488300630237 -28.283798930836003" fill="#f5ff19" stroke="none" /><path d="M 96.05791012581884 120.62667999033965 l -4.89120079529897 25.592829385728514 a47.05603118640562,47.05603118640562 0 0,0 -0.7921177333980584,-0.15844573123056893 l 5.329815014227987 -25.505094257835083" fill="#ffe015" stroke="none" /><path d="M 95.70440661134978 120.55596938700252 l -5.031602978633127 24.07804171354158 a45.5981528024695,45.5981528024695 0 0,0 -0.7648277690368194,-0.1666906524972128 l 5.444193164289083 -23.98811960291065" fill="#ffca12" stroke="none" /><path d="M 95.00130118170881 120.39639698878247 l -6.016077879054931 24.547650738154314 a46.27410433248352,46.27410433248352 0 0,0 -0.7699012911669673,-0.19570589753906548 l 6.436584463447277 -24.440759608779985" fill="#ffd413" stroke="none" /><path d="M 94.30408787586889 120.21278271476187 l -8.863690253676467 31.454109762243732 a53.67913747099816,53.67913747099816 0 0,0 -0.8847855228370156,-0.2575481706954779 l 9.402335788895089 -31.297317897245737" fill="#bdff1f" stroke="none" /><path d="M 93.95794788825049 120.11202640906438 l -6.885860348086868 22.92078959407589 a44.93277393762062,44.93277393762062 0 0,0 -0.7368105522133804,-0.2282657925227542 l 7.278311533171881 -22.799207213746488" fill="#ffbf11" stroke="none" /><path d="M 93.27111125876986 119.89276391827306 l -7.787193769534957 23.02145468597633 a45.30283445737854,45.30283445737854 0 0,0 -0.7345406496541566,-0.25551136772464683 l 8.181240191234135 -22.884384885683094" fill="#ffc512" stroke="none" /><path d="M 92.93061703081489 119.77432235084164 l -7.792366569036571 21.79663615392066 a44.14766347544909,44.14766347544909 0 0,0 -0.7114308690102475,-0.2612472694448962 l 8.165386589700937 -21.659658035467043" fill="#ffb310" stroke="none" /><path d="M 92.59220618246901 119.65005319985036 l -8.894351233264894 23.593323358730043 a46.21417043985936,46.21417043985936 0 0,0 -0.7399279032253514,-0.2862200084293222 l 9.298051398983775 -23.43716346216268" fill="#ffd313" stroke="none" /><path d="M 91.92203290615298 119.3841803445677 l -9.490130857205951 22.772859296461846 a45.67115125451873,45.67115125451873 0 0,0 -0.7210929444087797,-0.3077916991311485 l 9.879658876785161 -22.60659294767129" fill="#ffcb12" stroke="none" /><path d="M 91.59046798132341 119.24265499422711 l -15.318640502432132 35.05204730943916 a59.25319290498396,59.25319290498396 0 0,0 -0.9285443630018951,-0.4153260829632588 l 15.918098268289661 -34.78391747556605" fill="#72ff27" stroke="none" /><path d="M 91.26138138417905 119.09545874513695 l -11.168627765480803 24.405467283972325 a47.839617722928026,47.839617722928026 0 0,0 -0.7438178624099759,-0.34814431717348976 l 11.585934341762268 -24.21014673522831" fill="#ffec16" stroke="none" /><path d="M 90.6110303473126 118.78422872680471 l -6.441803422555193 12.887922038149862 a35.40817010575155,35.40817010575155 0 0,0 -0.5413618833281776,-0.27642323498350263 l 6.662092527596953 -12.775440851493522" fill="#ff2003" stroke="none" /><line stroke="#e1ed5e" stroke-width="0.3" x1="58.13341422392154" x2="55.67067388415222" y1="173.97424548756322" y2="178.32567169271397" /><path d="M 57.64086615596768 174.84453072859336 a86.0,86.0 0 0,1 -31.369924170532247,-30.572349798747897" fill="none" id="id44" stroke="none" /><text fill="#e1ed5e" style="font-size:6.75px; font-family:Arial;" text-anchor="middle"><textPath startOffset="22.145653131862474" xlink:href="#id44">August</textPath></text><path d="M 89.65649057296885 118.27599006163327 l -8.751818623710857 15.463624925033374 a38.76845589927402,38.76845589927402 0 0,0 -0.5763716162464414,-0.33276830779314515 l 9.015982707817699 -15.311109719964056" fill="#ff5a08" stroke="none" /><path d="M 89.34428304082925 118.09573695890944 l -13.15143083505465 22.33400473532849 a46.91848569123786,46.91848569123786 0 0,0 -0.6905222399566989,-0.41463876477855116 l 13.532885831568777 -22.10495197001402" fill="#ffde14" stroke="none" /><path d="M 89.03521579738668 117.91015095944536 l -6.8552334838526665 11.197508705076299 a34.12929652793303,34.12929652793303 0 0,0 -0.49704586368641124,-0.310193380293451 l 7.046443476328791 -11.0781795279413" fill="#ff0901" stroke="none" /><path d="M 88.4268655584334 117.5232005979908 l -12.420720757703284 18.806554309707003 a43.53798547219339,43.53798547219339 0 0,0 -0.620113003024366,-0.41723970319882114 l 12.741730048824657 -18.590564932451063" fill="#ffa90f" stroke="none" /><path d="M 88.1277618465304 117.32195027204791 l -12.745357984056964 18.595858198377158 a43.54440268172824,43.54440268172824 0 0,0 -0.6129494849821486,-0.4278863445735079 l 13.062702560212879 -18.374327037998523" fill="#ffa90f" stroke="none" /><path d="M 87.83215693770417 117.11559508785305 l -13.099610538916872 18.42624273215849 a43.60810070518365,43.60810070518365 0 0,0 -0.6063996908304095,-0.43898661195054794 l 13.413991240121236 -18.198655348834876" fill="#ffaa0f" stroke="none" /><path d="M 87.54013794807813 116.9041958592261 l -13.390399557772588 18.166648700815152 a43.568339002585574,43.568339002585574 0 0,0 -0.5982285871199063,-0.4489218844700298 l 13.70028113380326 -17.934107789081107" fill="#ffa90f" stroke="none" /><path d="M 87.2517909369889 116.68781488649013 l -13.763393246927148 18.016723571086324 a43.672302968743544,43.672302968743544 0 0,0 -0.5918430057038956,-0.4602207009657647 l 14.07064619726627 -17.777801818499764" fill="#ffab0f" stroke="none" /><path d="M 86.68645165197938 116.24036423190432 l -11.229378416971622 13.698015797315072 a38.712554203587956,38.712554203587956 0 0,0 -0.5103156473191455,-0.4257234629985691 l 11.462868398452661 -13.503230150404633" fill="#ff5908" stroke="none" /><path d="M 85.86807049272751 115.53346607816431 l -17.077301457101242 18.77094580424821 a46.37681287007365,46.37681287007365 0 0,0 -0.5842820946078444,-0.5408027839438385 l 17.397013323023057 -18.475025274171994" fill="#ffd614" stroke="none" /><path d="M 85.60350026404147 115.28858382429668 l -9.657033899550855 10.25543534714814 a35.08659852116933,35.08659852116933 0 0,0 -0.4349527129741784,-0.41667486000084375 l 9.831659098390348 -10.088148356841714" fill="#ff1a02" stroke="none" /><path d="M 85.34317274990678 115.03919595460226 l -15.697567708662014 16.107087349324086 a43.491151478899084,43.491151478899084 0 0,0 -0.5301945800690426,-0.5256630296913328 l 15.971754208861018 -15.835244309404095" fill="#ffa80f" stroke="none" /><path d="M 82.37810715431573 111.42229804090323 l -24.162496867768265 15.661838546682112 a49.79443421127161,49.79443421127161 0 0,0 -0.45877819406569476,-0.721275522103873 l 24.427792753459848 -15.244749349899568" fill="#f5ff19" stroke="none" /><line stroke="#e1ed5e" stroke-width="0.3" x1="26.387840678322732" x2="22.057713659400548" y1="142.50000000000003" y2="145.00000000000006" /><path d="M 25.521815274538298 143.00000000000003 a86.0,86.0 0 0,1 -11.493303480769221,-40.785679425670985" fill="none" id="id45" stroke="none" /><text fill="#e1ed5e" style="font-size:6.75px; font-family:Arial;" text-anchor="middle"><textPath startOffset="21.40746469413373" xlink:href="#id45">September</textPath></text><path d="M 81.1358732173502 109.22738970284198 l -14.01402048789551 6.854959672151817 a36.60074492907255,36.60074492907255 0 0,0 -0.2712302421467742,-0.5667668888589719 l 14.129629988002195 -6.613380281227741" fill="#ff3505" stroke="none" /><path d="M 80.05021161711548 106.5578916946017 l -27.57028034649507 9.062898765243853 a50.02165557671359,50.02165557671359 0 0,0 -0.2611494488783457,-0.818046929098435 l 27.721794511150673 -8.588282802454026" fill="#f1ff19" stroke="none" /><path d="M 79.0935383218832 101.97986365728391 l -25.835421474716302 2.4466412746420643 a46.951012625772705,46.951012625772705 0 0,0 -0.06909931956834604,-0.8030388352179576 l 25.873614416982388 -2.0027813920484445" fill="#ffdf14" stroke="none" /><path d="M 79.03789590574601 101.26102812881392 l -35.336574174959004 2.1257605539110656 a56.40045666873443,56.40045666873443 0 0,0 -0.04984299189024558,-0.9669407270084696 l 35.36785875630582 -1.518848033525865" fill="#97ff23" stroke="none" /><line stroke="#e1ed5e" stroke-width="0.3" x1="15.003131293944662" x2="10.003315487706104" y1="100.72959589197737" y2="100.7725132973878" /><path d="M 14.003168132696942 100.73817937305945 a86.0,86.0 0 0,1 10.791469493833604,-42.45332614584628" fill="none" id="id46" stroke="none" /><text fill="#e1ed5e" style="font-size:6.75px; font-family:Arial;" text-anchor="middle"><textPath startOffset="22.145653131862435" xlink:href="#id46">October</textPath></text><path d="M 79.00077361379809 100.18025310272382 l -13.95173773481175 0.11975888867702679 a34.95225171835669,34.95225171835669 0 0,0 0.0,-0.6000239828016836 l 13.95173773481175 0.11975888867702165" fill="#ff1802" stroke="none" /><path d="M 79.06263194458094 98.37931529534042 l -25.661459731421015 -1.9863592776260015 a46.73822330168019,46.73822330168019 0 0,0 0.06878615065708867,-0.7993993377628118 l 25.623579958066184 2.426579662764494" fill="#ffdb14" stroke="none" /><path d="M 79.13060592940154 97.66154086499901 l -25.537501120512434 -2.86153026668339 a46.69732124069198,46.69732124069198 0 0,0 0.09610289529927545,-0.7958698353705326 l 25.48461613895349 3.2994937789773586" fill="#ffdb14" stroke="none" /><path d="M 80.83023694016515 91.42560881287825 l -31.8137535627403 -14.229887314004879 a55.85117801050702,55.85117801050702 0 0,0 0.39897830274867885,-0.8718395956254225 l 31.564790795136574 14.773915891844974" fill="#9fff22" stroke="none" /><line stroke="#e1ed5e" stroke-width="0.3" x1="26.387840678322718" x2="22.05771365940052" y1="57.49999999999999" y2="54.99999999999999" /><path d="M 25.521815274538284 56.99999999999999 a86.0,86.0 0 0,1 29.574782752854787,-30.34633250058573" fill="none" id="id47" stroke="none" /><text fill="#e1ed5e" style="font-size:6.75px; font-family:Arial;" text-anchor="middle"><textPath startOffset="21.40746469413373" xlink:href="#id47">November</textPath></text><path d="M 82.98947788004972 87.6856937992154 l -20.94924424076213 -15.165637270663744 a46.8624706492719,46.8624706492719 0 0,0 0.47732322996151566,-0.647580634023418 l 20.685818991216795 15.523024213956026" fill="#ffdd14" stroke="none" /><path d="M 85.34317274990677 84.96080404539775 l -23.003294289417063 -23.60340642056251 a53.958645949428494,53.958645949428494 0 0,0 0.6689009602899569,-0.6407919888059065 l 22.594720843261808 23.994810539673985" fill="#b9ff1f" stroke="none" /><path d="M 85.86807049272753 84.46653392183569 l -23.15914273797009 -25.45595475370124 a55.41440867979802,55.41440867979802 0 0,0 0.7091328395315771,-0.6341109578392158 l 22.718744871615122 25.849761241423856" fill="#a5ff21" stroke="none" /><path d="M 86.13680546590413 84.22622945171909 l -41.58958360228762 -47.32131164484273 a84.0,84.0 0 0,0 1.0912820809486057,-0.9426234701411573 l 40.77112204157617 48.0282792474486" fill="#4dd2ff" stroke="none" /><line stroke="#e1ed5e" stroke-width="0.3" x1="56.869717070023135" x2="54.33264160355391" y1="26.7553504044142" y2="22.446841604673864" /><path d="M 56.362301976729285 25.89364864446614 a86.0,86.0 0 0,1 42.16139366436587,-11.88097634709845" fill="none" id="id48" stroke="none" /><text fill="#e1ed5e" style="font-size:6.75px; font-family:Arial;" text-anchor="middle"><textPath startOffset="22.145653131862474" xlink:href="#id48">December</textPath></text></svg>