<?xml version="1.0" encoding="utf-8" ?>
<svg baseProfile="full" height="200mm" version="1.1" viewBox="0,0,200,200" width="200mm" xmlns="http://www.w3.org/2000/svg" xmlns:ev="http://www.w3.org/2001/xml-events" xmlns:xlink="http://www.w3.org/1999/xlink"><defs /><rect fill="#1a1a1a" height="200" width="200" x="0" y="0" /><text alignment-baseline="middle" fill="#e1ed5e" style="dominant-baseline: central; font-size:9.0px; font-family:Arial;" text-anchor="middle" x="100.0" y="100.0">2020</text><line stroke="#e1ed5e" stroke-width="0.3" x1="100.0" x2="100.0" y1="15.0" y2="10.0" /><path d="M 100.0 14.0 a86.0,86.0 0 0,1 42.35913384403234,11.155469271406648" fill="none" id="id37" stroke="none" /><text fill="#e1ed5e" style="font-size:6.75px; font-family:Arial;" text-anchor="middle"><textPath startOffset="22.145653131862478" xlink:href="#id37">January</textPath></text><line stroke="#e1ed5e" stroke-width="0.3" x1="143.13028292997686" x2="145.6673583964461" y1="26.7553504044142" y2="22.446841604673864" /><path d="M 143.63769802327073 25.89364864446614 a86.0,86.0 0 0,1 29.32050498858742,28.57503671076993" fill="none" id="id38" stroke="none" /><text fill="#e1ed5e" style="font-size:6.75px; font-family:Arial;" text-anchor="middle"><textPath startOffset="20.669276256404974" xlink:href="#id38">February</textPath></text><line stroke="#e1ed5e" stroke-width="0.3" x1="172.87174338648825" x2="177.1583165268699" y1="56.24261187166439" y2="53.66864786411523" /><path d="M 173.72905801456457 55.72781907015455 a86.0,86.0 0 0,1 12.242430191666344,42.057860355516425" fill="none" id="id39" stroke="none" /><text fill="#e1ed5e" style="font-size:6.75px; font-family:Arial;" text-anchor="middle"><textPath startOffset="22.145653131862474" xlink:href="#id39">March</textPath></text><line stroke="#e1ed5e" stroke-width="0.3" x1="184.99686870605535" x2="189.99668451229388" y1="99.2704041080226" y2="99.22748670261217" /><path d="M 185.99683186730306 99.26182062694052 a86.0,86.0 0 0,1 -10.086455211305974,41.156179273409016" fill="none" id="id40" stroke="none" /><text fill="#e1ed5e" style="font-size:6.75px; font-family:Arial;" text-anchor="middle"><textPath startOffset="21.40746469413373" xlink:href="#id40">April</textPath></text><path d="M 120.99922638620191 99.81974689727618 l 46.604909893360194 -0.400047099638037 a67.60662682334082,67.60662682334082 0 0,0 0.0,1.1606004047237222 l -46.604909893360194 -0.4000470996380313" fill="#31ff3d" stroke="none" /><path d="M 120.99922638620191 100.18025310272382 l 18.385750724362495 0.15781955739811313 a39.3864280574312,39.3864280574312 0 0,0 -0.011606933529406699,0.676045688679209 l -18.38033235923442 -0.47341216204639314" fill="#ff0000" stroke="none" /><line stroke="#e1ed5e" stroke-width="0.3" x1="174.33088141563837" x2="178.70328620479359" y1="141.23008692659167" y2="143.65538615756765" /><path d="M 175.20536237346943 141.71514677278685 a86.0,86.0 0 0,1 -30.301960400862466,31.631185727798858" fill="none" id="id41" stroke="none" /><text fill="#e1ed5e" style="font-size:6.75px; font-family:Arial;" text-anchor="middle"><textPath startOffset="22.145653131862474" xlink:href="#id41">May</textPath></text><path d="M 113.31354834802062 116.24036423190432 l 24.07558830904594 29.368303101134913 a58.975402294996165,58.975402294996165 0 0,0 -0.7884427982052021,0.6351137072968478 l -23.567894740485485 -29.77726510222516" fill="#a0ff22" stroke="none" /><path d="M 113.03279911837588 116.46651593811092 l 14.862583961132756 18.778389312579442 a44.94836752633712,44.94836752633712 0 0,0 -0.6091361144226801,0.4736679269019283 l -14.538037902074844 -19.030758291102163" fill="#ff6d0a" stroke="none" /><line stroke="#e1ed5e" stroke-width="0.3" x1="143.1302829299769" x2="145.66735839644613" y1="173.24464959558577" y2="177.55315839532614" /><path d="M 143.63769802327073 174.10635135553383 a86.0,86.0 0 0,1 -40.68552437913181,11.842963189579606" fill="none" id="id42" stroke="none" /><text fill="#e1ed5e" style="font-size:6.75px; font-family:Arial;" text-anchor="middle"><textPath startOffset="21.407464694133747" xlink:href="#id42">June</textPath></text><path d="M 108.73861861582097 119.09545874513695 l 16.18881895874443 35.3754910415155 a59.90376878539336,59.90376878539336 0 0,0 -0.9387394012242102,0.41988619388445225 l -15.579166154664595 -35.648180986309804" fill="#92ff23" stroke="none" /><path d="M 107.407793817531 119.65005319985036 l 13.56481465994052 35.98228248242225 a59.45424358121439,59.45424358121439 0 0,0 -0.9580933813371875,0.3518251606031504 l -12.945132126949206 -36.209838492034116" fill="#99ff23" stroke="none" /><path d="M 106.72888874123015 119.89276391827305 l 14.773964102141885 43.67659970659894 a67.1076498774537,67.1076498774537 0 0,0 -1.0944211529964145,0.35975797095617307 l -14.022020211497738 -43.923778598957135" fill="#30ff34" stroke="none" /><path d="M 106.38641147887787 120.00534299687104 l 12.902994419062074 40.41844624227124 a63.428033911763066,63.428033911763066 0 0,0 -1.0400970293358038,0.32222471840108374 l -12.207256756854646 -40.63398754847896" fill="#5eff29" stroke="none" /><path d="M 105.3480935250658 120.30758222061773 l 8.849241968742659 33.60201313386184 a55.74772467471187,55.74772467471187 0 0,0 -0.9275219007653445,0.2357724401283682 l -8.271114774751917 -33.74897080582548" fill="#d3ff1c" stroke="none" /><path d="M 104.64783097203109 120.47920084513623 l 8.388510517428422 36.96132512385296 a58.901275224089375,58.901275224089375 0 0,0 -0.9879639449040194,0.2153221434770409 l -7.752784155905266 -37.09987872546372" fill="#a1ff22" stroke="none" /><path d="M 104.29559338865022 120.5559693870025 l 6.711142866823431 32.1152480788158 a53.808971299673466,53.808971299673466 0 0,0 -0.9057933554475404,0.18118403931193722 l -6.158853025844932 -32.2257215147906" fill="#f3ff19" stroke="none" /><path d="M 103.58742460773223 120.69131181640829 l 5.607283320646362 32.34132011593179 a53.82381167809694,53.82381167809694 0 0,0 -0.9117305088254215,0.1500249082730697 l -5.051275308767868 -32.43281102270053" fill="#f3ff19" stroke="none" /><path d="M 102.875027216393 120.80226474461374 l 5.519960976625852 39.93968786137977 a61.31933327385162,61.31933327385162 0 0,0 -1.0439534091558516,0.13516066949060082 l -4.833529745579225 -40.02856012707076" fill="#7dff26" stroke="none" /><path d="M 101.80034050326958 120.92268563240118 l 2.819569058160416 32.76766640288288 a53.88875083009926,53.88875083009926 0 0,0 -0.9223470419604487,0.07139549437811989 l -2.2566530214247313 -32.81123966425605" fill="#f2ff19" stroke="none" /><path d="M 101.08105385017728 120.97215588758144 l 1.7225701556384123 33.41740083106861 a54.461768127900854,54.461768127900854 0 0,0 -0.9340821862762225,0.040113508186979466 l -1.1486622087613603 -33.44204690768142" fill="#e8ff1a" stroke="none" /><path d="M 100.72087961077811 120.9876233191556 l 1.13171519387949 32.948653060210965 a53.96808331951082,53.96808331951082 0 0,0 -0.9261608901653559,0.023854619211810268 l -0.5659409896433903 -32.96322539677282" fill="#f0ff19" stroke="none" /><line stroke="#e1ed5e" stroke-width="0.3" x1="101.45913802915013" x2="101.54496967792366" y1="184.9874750549273" y2="189.98673829345242" /><path d="M 101.47630435890484 185.9873277026323 a86.0,86.0 0 0,1 -42.54439059252881,-10.42667462771756" fill="none" id="id43" stroke="none" /><text fill="#e1ed5e" style="font-size:6.75px; font-family:Arial;" text-anchor="middle"><textPath startOffset="22.145653131862474" xlink:href="#id43">July</textPath></text><path d="M 100.36049292484886 120.99690560180557 l 0.4609197331192457 26.846263710645363 a47.850220152205324,47.850220152205324 0 0,0 -0.8214126579680947,0.007050839754395102 l -3.288203616580001e-15 -26.850220152205324" fill="#ffa30f" stroke="none" /><path d="M 99.63950707515114 120.99690560180557 l -0.6512400906641188 37.931470398536 a58.937060511466896,58.937060511466896 0 0,0 -1.0114348531495039,-0.026050974010704463 l 1.3022882578843666 -37.91470170717525" fill="#a1ff22" stroke="none" /><path d="M 99.27912038922189 120.98762331915562 l -1.442938326382458 42.00957498881118 a63.0343485943852,63.0343485943852 0 0,0 -1.081111836238299,-0.04642759398600575 l 2.1638759232215956 -41.978614826399344" fill="#64ff29" stroke="none" /><path d="M 98.91894614982273 120.97215588758144 l -1.8560876512353226 36.00760457616345 a57.05541081006311,57.05541081006311 0 0,0 -0.9777005629240326,-0.0588160380208366 l 2.4739325662918015 -35.97043656031793" fill="#beff1e" stroke="none" /><path d="M 98.55909050195518 120.95050786540614 l -2.41075762963043 35.05188684625432 a56.13469117313311,56.13469117313311 0 0,0 -0.9607880226829008,-0.07437106940379118 l 3.0121146470885667 -35.00533800985548" fill="#cdff1d" stroke="none" /><path d="M 98.19965949673042 120.92268563240118 l -3.037224831576985 35.297156416022894 a56.42758791866494,56.42758791866494 0 0,0 -0.9643755210066326,-0.09132736449677745 l 3.6426999159686333 -35.23981729602093" fill="#c8ff1d" stroke="none" /><path d="M 97.84075906011543 120.88869738790638 l -3.3811259753366167 32.70932670115639 a53.88361394530836,53.88361394530836 0 0,0 -0.9192649699336428,-0.103005557284304 l 3.942126846871059 -32.64646538336512" fill="#f2ff19" stroke="none" /><path d="M 97.48249496171623 120.84855314841334 l -3.948361888370538 32.698100471322306 a53.935624117879186,53.935624117879186 0 0,0 -0.9182467529668376,-0.11888542611199984 l 4.5090864632281695 -32.62550344900991" fill="#f1ff19" stroke="none" /><path d="M 96.76829788921471 120.74984581791261 l -9.695106332355873 62.24953745373786 a84.0,84.0 0 0,0 -1.422889987787746,-0.23413600601732654 l 10.762273823196683 -62.07393544922487" fill="#4dd2ff" stroke="none" /><path d="M 96.41257539226777 120.69131181640829 l -7.176578502689414 41.39259770198994 a63.01012286966139,63.01012286966139 0 0,0 -1.0641667626928135,-0.19392663342262928 l 7.886079998933284 -41.26330289463595" fill="#64ff29" stroke="none" /><path d="M 96.05791012581884 120.62667999033965 l -7.135784709417749 37.33744089527937 a59.01320712630862,59.01320712630862 0 0,0 -0.9933988628209337,-0.1987075943219431 l 7.77568005776964 -37.20944390429457" fill="#a0ff22" stroke="none" /><path d="M 95.70440661134978 120.55596938700252 l -7.3406177953887175 35.12751348448999 a56.88630481424639,56.88630481424639 0 0,0 -0.9541664064398729,-0.20795612727383378 l 7.942546618447727 -34.996325899082436" fill="#c1ff1e" stroke="none" /><path d="M 95.00130118170881 120.39639698878247 l -8.77687061657474 35.812627230066916 a57.87245214167107,57.87245214167107 0 0,0 -0.9628727831603556,-0.24475849619463586 l 9.390348692960474 -35.65668350203702" fill="#b1ff20" stroke="none" /><path d="M 94.30408787586889 120.21278271476187 l -12.93125922002423 45.888477059761996 a68.67567295675819,68.67567295675819 0 0,0 -1.131971266044624,-0.32950033801959844 l 13.717090498450462 -45.659733027439884" fill="#33ff4e" stroke="none" /><path d="M 93.95794788825049 120.11202640906438 l -10.04579837128949 33.439195559173704 a55.91558197368712,55.91558197368712 0 0,0 -0.9169073533844374,-0.28406024189190326 l 10.61834635754556 -33.26181872947515" fill="#d1ff1d" stroke="none" /><path d="M 93.27111125876986 119.89276391827306 l -11.36075588704679 33.586056106024635 a56.45546416396354,56.45546416396354 0 0,0 -0.9153695087785098,-0.31841303169750534 l 11.935631167870323 -33.386084641758536" fill="#c8ff1d" stroke="none" /><path d="M 92.93061703081489 119.77432235084164 l -11.36830249679219 31.79916537742184 a54.77018241524904,54.77018241524904 0 0,0 -0.8826106616763375,-0.3241068603990741 l 11.912502310122646 -31.599327668014045" fill="#e3ff1b" stroke="none" /><path d="M 92.59220618246901 119.65005319985036 l -12.97599059754878 34.420356700421216 a57.78501444028405,57.78501444028405 0 0,0 -0.9251868889064527,-0.3578821639070612 l 13.56494974894876 -34.19253464837612" fill="#b3ff20" stroke="none" /><path d="M 91.92203290615298 119.3841803445677 l -13.84517493665571 33.22337968901182 a56.99280243308157,56.99280243308157 0 0,0 -0.8998482978357695,-0.3840917300587737 l 14.41345830966191 -32.980813309293644" fill="#bfff1e" stroke="none" /><path d="M 91.59046798132341 119.24265499422711 l -22.348401801738156 51.13751687824439 a76.8076759555947,76.8076759555947 0 0,0 -1.2036369864187484,-0.5383715143807077 l 23.22295219101254 -50.74634161295383" fill="#41ffcb" stroke="none" /><path d="M 91.26138138417905 119.09545874513695 l -16.293938149236222 35.605195443733564 a60.15638342591921,60.15638342591921 0 0,0 -0.9353208629160319,-0.4377773909636805 l 16.902747726023744 -35.32024182119935" fill="#8eff24" stroke="none" /><path d="M 90.6110303473126 118.78422872680471 l -9.397962645067523 18.80222073573173 a42.02011433064209,42.02011433064209 0 0,0 -0.6424530881929604,-0.3280411244908129 l 9.719342954974065 -18.638121659568082" fill="#ff3505" stroke="none" /><line stroke="#e1ed5e" stroke-width="0.3" x1="58.13341422392154" x2="55.67067388415222" y1="173.97424548756322" y2="178.32567169271397" /><path d="M 57.64086615596768 174.84453072859336 a86.0,86.0 0 0,1 -31.369924170532247,-30.572349798747897" fill="none" id="id44" stroke="none" /><text fill="#e1ed5e" style="font-size:6.75px; font-family:Arial;" text-anchor="middle"><textPath startOffset="22.145653131862474" xlink:href="#id44">August</textPath></text><path d="M 89.65649057296885 118.27599006163327 l -12.768049427595862 22.559919927695308 a46.9224434289971,46.9224434289971 0 0,0 -0.6975971554727233,-0.40275790549809704 l 13.153439050928986 -22.337415124921037" fill="#ff920d" stroke="none" /><path d="M 89.34428304082925 118.09573695890944 l -19.186654358975638 32.58313370483481 a58.81254166963576,58.81254166963576 0 0,0 -0.8655728635088462,-0.51975163460868 l 19.743159979041913 -32.24896806969021" fill="#a3ff22" stroke="none" /><path d="M 89.03521579738668 117.91015095944536 l -10.001116764738011 16.33607262209557 a40.15436256460403,40.15436256460403 0 0,0 -0.5847925932304443,-0.3649538292489874 l 10.28007348675817 -16.161982996005037" fill="#ff1001" stroke="none" /><path d="M 88.4268655584334 117.5232005979908 l -18.120619653961516 27.436927719063085 a53.880721696833675,53.880721696833675 0 0,0 -0.7674249456921562,-0.5163577525488248 l 18.588940887750677 -27.121820292457137" fill="#f2ff19" stroke="none" /><path d="M 88.1277618465304 117.32195027204791 l -18.594233691264762 27.129542650961536 a53.890083779396285,53.890083779396285 0 0,0 -0.758579681059361,-0.5295475316463976 l 19.057208463497886 -26.80635030351001" fill="#f2ff19" stroke="none" /><path d="M 87.83215693770417 117.11559508785305 l -19.111053603191316 26.8820902357004 a53.9830129803872,53.9830129803872 0 0,0 -0.7506697575001144,-0.5434270144291263 l 19.569704371065384 -26.55006244989821" fill="#f0ff19" stroke="none" /><path d="M 87.54013794807813 116.9041958592261 l -19.535286408438555 26.503367873433803 a53.92500453597975,53.92500453597975 0 0,0 -0.7404339943296728,-0.5556354731565576 l 19.987373391678997 -26.16411337301323" fill="#f1ff19" stroke="none" /><path d="M 87.2517909369889 116.68781488649013 l -20.07944780666546 26.28464173785894 a54.076677818490154,54.076677818490154 0 0,0 -0.7328421302050968,-0.5698624730034786 l 20.527699881505786 -25.93607821323467" fill="#efff19" stroke="none" /><path d="M 86.68645165197938 116.24036423190432 l -16.382567422115795 19.98406848677923 a46.84088830950771,46.84088830950771 0 0,0 -0.6174647664156138,-0.51511106903932 l 16.7232065226933 -19.699895233828038" fill="#ff900d" stroke="none" /><path d="M 85.86807049272751 115.53346607816431 l -24.91411653613209 27.384978384040423 a58.02229387639739,58.02229387639739 0 0,0 -0.7309986457031741,-0.6766014332867439 l 25.380544953149233 -26.953259204621297" fill="#afff20" stroke="none" /><path d="M 85.60350026404147 115.28858382429668 l -14.088670190145358 14.96167951414657 a41.55097276555841,41.55097276555841 0 0,0 -0.5150886404731354,-0.49344326579682724 l 14.343431316483807 -14.717624118044162" fill="#ff2b04" stroke="none" /><path d="M 85.34317274990678 115.03919595460226 l -22.901219622424726 23.49866881994107 a53.812395470367626,53.812395470367626 0 0,0 -0.656019430360758,-0.6504124603742878 l 23.301230972915445 -23.102076349338123" fill="#f3ff19" stroke="none" /><path d="M 82.37810715431573 111.42229804090323 l -35.25072531393309 22.84909426131064 a63.00826994438859,63.00826994438859 0 0,0 -0.5805231197856839,-0.9126787666303735 l 35.63776612534466 -22.240601820001594" fill="#64ff29" stroke="none" /><line stroke="#e1ed5e" stroke-width="0.3" x1="26.387840678322732" x2="22.057713659400534" y1="142.50000000000003" y2="145.00000000000006" /><path d="M 25.521815274538284 143.00000000000003 a86.0,86.0 0 0,1 -11.493303480769212,-40.785679425670985" fill="none" id="id45" stroke="none" /><text fill="#e1ed5e" style="font-size:6.75px; font-family:Arial;" text-anchor="middle"><textPath startOffset="21.40746469413373" xlink:href="#id45">September</textPath></text><path d="M 81.1358732173502 109.22738970284198 l -20.445088496694883 10.000717300183203 a43.75996463432817,43.75996463432817 0 0,0 -0.32428372228772184,-0.6776282575788921 l 20.613751476942518 -9.648276540539207" fill="#ff5608" stroke="none" /><path d="M 80.05021161711548 106.5578916946017 l -40.22234890049222 13.221885000956116 a63.33976374581507,63.33976374581507 0 0,0 -0.330679666708284,-1.0358493461421059 l 40.44339328297776 -12.529466621122618" fill="#60ff29" stroke="none" /><path d="M 79.0935383218832 101.97986365728391 l -37.691359082585976 3.569410892679177 a58.859995293359624,58.859995293359624 0 0,0 -0.08662615345456064,-1.0067272124258273 l 37.74707885873828 -2.9218626328776875" fill="#a2ff22" stroke="none" /><path d="M 79.03789590574601 101.26102812881392 l -51.55261381279398 3.101277230544529 a72.6458121379824,72.6458121379824 0 0,0 -0.0641995621865416,-1.2454543553680346 l 51.598254964437096 -2.215851081799763" fill="#39ff8d" stroke="none" /><line stroke="#e1ed5e" stroke-width="0.3" x1="15.003131293944662" x2="10.003315487706104" y1="100.72959589197737" y2="100.7725132973878" /><path d="M 14.003168132696942 100.73817937305945 a86.0,86.0 0 0,1 10.791469493833604,-42.45332614584628" fill="none" id="id46" stroke="none" /><text fill="#e1ed5e" style="font-size:6.75px; font-family:Arial;" text-anchor="middle"><textPath startOffset="22.145653131862435" xlink:href="#id46">October</textPath></text><path d="M 79.00077361379809 100.18025310272382 l -20.35422403708352 0.17471653330195275 a41.354973888924484,41.354973888924484 0 0,0 0.0,-0.7099392720515331 l 20.35422403708352 0.17471653330194525" fill="#ff2803" stroke="none" /><path d="M 79.06263194458094 98.37931529534042 l -37.43756587315093 -2.8979043702963176 a58.549556432079164,58.549556432079164 0 0,0 0.08616927056998187,-1.001417540756794 l 37.38230297988321 3.5401429584287922" fill="#a7ff21" stroke="none" /><path d="M 79.13060592940154 97.66154086499901 l -37.25672235489417 -4.174693449952165 a58.48988431604911,58.48988431604911 0 0,0 0.12037194166918996,-0.9968523539395576 l 37.17956832696532 4.813639480815159" fill="#a8ff21" stroke="none" /><path d="M 80.83023694016515 91.42560881287825 l -46.41316227303044 -20.760017133135705 a71.84446817059595,71.84446817059595 0 0,0 0.5132279209436433,-1.1214956301547 l 46.04994988723175 21.553701745505077" fill="#38ff81" stroke="none" /><line stroke="#e1ed5e" stroke-width="0.3" x1="26.387840678322718" x2="22.05771365940052" y1="57.49999999999999" y2="54.99999999999999" /><path d="M 25.521815274538284 56.99999999999999 a86.0,86.0 0 0,1 29.574782752854787,-30.34633250058573" fill="none" id="id47" stroke="none" /><text fill="#e1ed5e" style="font-size:6.75px; font-family:Arial;" text-anchor="middle"><textPath startOffset="21.40746469413373" xlink:href="#id47">November</textPath></text><path d="M 82.98947788004972 87.6856937992154 l -30.56290325900449 -22.125185015628354 a58.73082118898358,58.73082118898358 0 0,0 0.5982097162146406,-0.8115863695476947 l 30.17859152320603 22.646577694444915" fill="#a4ff21" stroke="none" /><path d="M 85.34317274990677 84.96080404539775 l -33.559561859415666 -34.435066903796496 a69.08344855420509,69.08344855420509 0 0,0 0.8563963061889818,-0.82040828886086 l 32.963493067361384 35.00608732296293" fill="#33ff55" stroke="none" /><path d="M 85.86807049272753 84.46653392183569 l -33.78692953919689 -37.1377541624701 a71.20726433414512,71.20726433414512 0 0,0 0.9112324890864825,-0.8148297106794927 l 33.14443202328702 37.712279403032994" fill="#37ff77" stroke="none" /><line stroke="#e1ed5e" stroke-width="0.3" x1="56.869717070023135" x2="54.33264160355391" y1="26.7553504044142" y2="22.446841604673864" /><path d="M 56.362301976729285 25.89364864446614 a86.0,86.0 0 0,1 42.16139366436587,-11.88097634709845" fill="none" id="id48" stroke="none" /><text fill="#e1ed5e" style="font-size:6.75px; font-family:Arial;" text-anchor="middle"><textPath startOffset="22.145653131862474" xlink:href="#id48">December</textPath></text></svg>